<svg width="320" height="314" viewBox="0 0 320 314" fill="none" xmlns="http://www.w3.org/2000/svg">
<path d="M313.062 146.5C309.25 146.5 306.125 149.625 306.125 153.438C306.125 192.375 290.938 229 263.438 256.5C235.875 284 199.313 299.187 160.375 299.187C125.938 299.187 93.3125 287.312 67.1875 265.5L92.4375 260.5C96.1875 259.75 98.625 256.125 97.875 252.375C97.125 248.625 93.4375 246.188 89.75 246.938L51.125 254.625C50.6875 254.688 50.3125 254.875 49.875 255H49.8125C49.25 255.25 48.75 255.563 48.25 255.938C48.125 256 48 256.125 47.9375 256.25C47.5 256.625 47.125 257.063 46.75 257.563C46.75 257.563 46.75 257.625 46.6875 257.625C46.375 258.125 46.125 258.625 45.9375 259.187C45.875 259.312 45.875 259.437 45.8125 259.625C45.625 260.187 45.5625 260.812 45.5625 261.437V306.188C45.5625 310 48.6875 313.125 52.5 313.125C56.3125 313.125 59.375 309.937 59.375 306.062V276.938C87.8125 300.25 123.125 313 160.438 313C203.063 313 243.125 296.375 273.25 266.25C303.375 236.125 320 196.063 320 153.438C320 149.625 316.875 146.5 313.062 146.5Z" fill="#0097B7"/>
<path d="M298.875 107.687C299.812 110.625 302.562 112.437 305.437 112.437C306.125 112.437 306.875 112.312 307.625 112.062C311.25 110.875 313.25 106.937 312 103.312C310.187 97.875 308.125 92.5 305.75 87.3125C304.187 83.8125 300.062 82.3125 296.625 83.875C293.125 85.4375 291.625 89.5625 293.187 93C295.312 97.8125 297.25 102.75 298.875 107.687Z" fill="#0097B7"/>
<path d="M13.8125 159.562C13.8125 120.625 29 84 56.5 56.5C84.0625 29 120.625 13.8125 159.563 13.8125C194 13.8125 226.625 25.6875 252.75 47.5L227.5 52.5625C223.75 53.3125 221.312 56.9375 222.062 60.6875C222.687 64 225.625 66.25 228.813 66.25C229.25 66.25 229.687 66.1875 230.187 66.125L268.813 58.4375C269.25 58.375 269.625 58.1875 270.063 58.0625H270.125C270.688 57.8125 271.188 57.5 271.688 57.125C271.813 57.0625 271.938 56.9375 272 56.8125C272.438 56.4375 272.813 56 273.188 55.5C273.188 55.5 273.188 55.4375 273.25 55.4375C273.563 54.9375 273.812 54.4375 274 53.875C274.062 53.75 274.063 53.625 274.125 53.4375C274.313 52.875 274.375 52.25 274.375 51.625V6.9375C274.375 3.125 271.25 0 267.437 0C263.625 0 260.5 3.125 260.5 6.9375V36.0625C232.187 12.6875 196.875 0 159.563 0C116.938 0 76.875 16.625 46.75 46.75C16.625 76.875 0 116.937 0 159.562C0 163.375 3.125 166.5 6.9375 166.5C10.75 166.5 13.8125 163.437 13.8125 159.562Z" fill="#0097B7"/>
<path d="M19.3752 199.562C18.3127 195.875 14.5002 193.75 10.8127 194.812C7.12524 195.875 5.00024 199.687 6.06274 203.375C8.18774 210.937 10.9377 218.438 14.1877 225.625C15.3752 228.188 17.8752 229.688 20.5002 229.688C21.4377 229.688 22.4377 229.5 23.3752 229.063C26.8752 227.5 28.3752 223.375 26.8127 219.937C23.8752 213.312 21.3752 206.5 19.3752 199.562Z" fill="#0097B7"/>
</svg>
