<svg width="320" height="350" viewBox="0 0 320 350" fill="none" xmlns="http://www.w3.org/2000/svg">
<path d="M266.411 350H53.5884C39.3799 349.982 25.7589 344.517 15.7129 334.805C5.66698 325.093 0.0161979 311.926 0 298.192V51.7979C0.0188973 38.0659 5.67087 24.9015 15.7165 15.1915C25.7622 5.48147 39.3817 0.0183591 53.5884 9.31994e-05H189.498C196.558 -0.0128678 203.551 1.32613 210.073 3.93977C216.595 6.55341 222.516 10.3899 227.496 15.2278L304.235 89.3345C309.25 94.1512 313.226 99.8823 315.932 106.195C318.638 112.509 320.021 119.278 320 126.112V298.192C319.984 311.926 314.333 325.093 304.287 334.805C294.241 344.517 280.62 349.982 266.411 350ZM53.5884 24.6563C46.1445 24.6667 39.0085 27.5296 33.7449 32.6174C28.4812 37.7052 25.5194 44.6027 25.5086 51.7979V298.192C25.5193 305.388 28.4809 312.287 33.7442 317.376C39.0076 322.466 46.1435 325.331 53.5884 325.344H266.411C273.856 325.331 280.992 322.466 286.256 317.376C291.519 312.287 294.48 305.388 294.491 298.192V126.082C294.503 122.49 293.777 118.932 292.355 115.614C290.933 112.295 288.842 109.283 286.206 106.752L209.466 32.6548C206.85 30.1117 203.738 28.0954 200.311 26.7225C196.883 25.3496 193.208 24.6473 189.498 24.6563H53.5884Z" fill="white"/>
<path d="M295.909 122.926H248.412C234.25 122.913 220.671 117.469 210.657 107.79C200.643 98.1099 195.011 84.9852 194.997 71.296V12.3578H220.506V71.296C220.514 78.4475 223.456 85.3039 228.688 90.3608C233.92 95.4177 241.013 98.2621 248.412 98.2699H295.909V122.926Z" fill="white"/>
<path d="M124.002 149.101C121.775 149.353 119.714 150.367 118.191 151.958C116.668 153.549 115.784 155.614 115.697 157.78V227.991C112.546 226.928 109.197 226.525 105.873 226.807C102.548 227.089 99.3235 228.051 96.4124 229.628C92.9795 231.225 90.0176 233.631 87.7994 236.625C85.5812 239.619 84.1781 243.104 83.7193 246.759C83.6726 249.794 84.2695 252.806 85.4731 255.609C86.6768 258.412 88.4618 260.947 90.7181 263.057C92.9743 265.168 95.6539 266.81 98.5917 267.881C101.529 268.952 104.663 269.43 107.799 269.285C113.917 269.542 119.89 267.444 124.41 263.451C128.93 259.458 131.627 253.895 131.91 247.982C131.91 247.746 131.839 247.529 131.828 247.292H131.91V188.117L201.742 179.458V219.253C198.59 218.191 195.239 217.787 191.913 218.069C188.587 218.352 185.361 219.313 182.448 220.89C179.015 222.487 176.053 224.893 173.835 227.887C171.616 230.881 170.213 234.366 169.755 238.021C169.955 243.97 172.5 249.62 176.867 253.816C181.234 258.012 187.094 260.437 193.249 260.596C199.405 260.755 205.39 258.635 209.983 254.67C214.575 250.705 217.427 245.194 217.956 239.264C217.956 239.027 217.884 238.81 217.874 238.574H217.956V145.413C217.874 144.066 217.494 142.752 216.841 141.56C216.188 140.367 215.278 139.325 214.173 138.502C213.067 137.679 211.791 137.095 210.432 136.79C209.072 136.485 207.661 136.466 206.293 136.734L124.002 149.101Z" fill="white"/>
</svg>
