<svg width="320" height="350" viewBox="0 0 320 350" fill="none" xmlns="http://www.w3.org/2000/svg">
<path d="M266.411 350H53.5884C39.3817 349.982 25.7622 344.519 15.7165 334.809C5.67087 325.099 0.0188973 311.934 0 298.202V51.8077C0.0161979 38.074 5.66698 24.9071 15.7129 15.195C25.7589 5.48283 39.3799 0.0183646 53.5884 9.31994e-05H189.498C196.558 -0.0128678 203.551 1.32613 210.073 3.93977C216.595 6.55341 222.516 10.3899 227.496 15.2278L304.235 89.3443C309.25 94.1574 313.225 99.8851 315.931 106.195C318.638 112.505 320.02 119.271 320 126.102V298.202C319.981 311.934 314.329 325.099 304.283 334.809C294.238 344.519 280.618 349.982 266.411 350ZM53.5884 24.6563C46.1435 24.6694 39.0076 27.5344 33.7442 32.6238C28.4809 37.7131 25.5193 44.6116 25.5086 51.8077V298.202C25.5194 305.397 28.4812 312.295 33.7449 317.383C39.0085 322.47 46.1445 325.333 53.5884 325.344H266.411C273.855 325.333 280.991 322.47 286.255 317.383C291.519 312.295 294.48 305.397 294.491 298.202V126.082C294.504 122.493 293.778 118.937 292.356 115.622C290.933 112.307 288.843 109.298 286.206 106.771L209.466 32.6449C206.85 30.1019 203.738 28.0856 200.311 26.7126C196.883 25.3397 193.208 24.6374 189.498 24.6464L53.5884 24.6563Z" fill="white"/>
<path d="M295.91 122.926H248.413C234.251 122.913 220.672 117.469 210.658 107.79C200.644 98.1099 195.012 84.9852 194.998 71.296V12.3677H220.507V71.296C220.515 78.4475 223.457 85.3039 228.689 90.3608C233.921 95.4177 241.014 98.2621 248.413 98.2699H295.91V122.926Z" fill="white"/>
<path d="M117.238 178.541C130.317 178.541 140.92 168.292 140.92 155.65C140.92 143.008 130.317 132.759 117.238 132.759C104.159 132.759 93.5557 143.008 93.5557 155.65C93.5557 168.292 104.159 178.541 117.238 178.541Z" fill="white"/>
<path d="M237.688 250.537L213.812 210.564L189.936 170.582C189.032 169.073 187.732 167.82 186.169 166.949C184.606 166.078 182.833 165.62 181.029 165.62C179.224 165.62 177.452 166.078 175.888 166.949C174.325 167.82 173.026 169.073 172.121 170.582L148.245 210.564L136.532 230.23L124.41 209.943C123.507 208.431 122.209 207.176 120.645 206.303C119.082 205.431 117.308 204.971 115.502 204.971C113.697 204.971 111.923 205.431 110.359 206.303C108.796 207.176 107.497 208.431 106.595 209.943L94.4322 230.23L82.3105 250.527C81.4078 252.038 80.9326 253.753 80.9326 255.498C80.9326 257.243 81.4079 258.957 82.3107 260.468C83.2134 261.98 84.5119 263.235 86.0755 264.107C87.639 264.98 89.4127 265.439 91.2181 265.439H228.781C230.585 265.438 232.357 264.978 233.919 264.106C235.481 263.234 236.778 261.981 237.681 260.471C238.583 258.961 239.059 257.248 239.06 255.505C239.062 253.761 238.588 252.048 237.688 250.537Z" fill="white"/>
</svg>
