<svg width="320" height="350" viewBox="0 0 320 350" fill="none" xmlns="http://www.w3.org/2000/svg">
<path d="M266.411 350H53.5884C39.3817 349.982 25.7622 344.519 15.7165 334.809C5.67087 325.099 0.0188973 311.934 0 298.202V51.8077C0.0161979 38.074 5.66698 24.9071 15.7129 15.195C25.7589 5.48283 39.3799 0.0183646 53.5884 9.31994e-05H189.498C196.558 -0.0128678 203.551 1.32613 210.073 3.93977C216.595 6.55341 222.516 10.3899 227.496 15.2278L304.235 89.3443C309.25 94.1574 313.225 99.8851 315.931 106.195C318.638 112.505 320.02 119.271 320 126.102V298.202C319.981 311.934 314.329 325.099 304.283 334.809C294.238 344.519 280.618 349.982 266.411 350ZM53.5884 24.6563C46.1435 24.6694 39.0076 27.5344 33.7442 32.6238C28.4809 37.7131 25.5193 44.6116 25.5086 51.8077V298.202C25.5194 305.397 28.4812 312.295 33.7449 317.383C39.0085 322.47 46.1445 325.333 53.5884 325.344H266.411C273.855 325.333 280.991 322.47 286.255 317.383C291.519 312.295 294.48 305.397 294.491 298.202V126.082C294.504 122.493 293.778 118.937 292.356 115.622C290.933 112.307 288.843 109.298 286.206 106.771L209.466 32.6449C206.85 30.1019 203.738 28.0856 200.311 26.7126C196.883 25.3397 193.208 24.6374 189.498 24.6464L53.5884 24.6563Z" fill="#0097B7"/>
<path d="M295.909 122.926H248.412C234.25 122.913 220.672 117.469 210.657 107.79C200.643 98.1099 195.011 84.9851 194.998 71.296V12.3676H220.506V71.296C220.514 78.4475 223.457 85.3039 228.689 90.3607C233.92 95.4176 241.014 98.262 248.412 98.2699H295.909V122.926Z" fill="#0097B7"/>
<path d="M87 264.5C86.9991 265.616 87.2212 266.722 87.6536 267.754C88.086 268.786 88.7203 269.723 89.5201 270.512C90.3198 271.302 91.2695 271.928 92.3146 272.355C93.3597 272.782 94.4799 273.001 95.6109 273L224.389 273C226.673 273 228.863 272.104 230.478 270.51C232.093 268.916 233 266.754 233 264.5C233 262.246 232.093 260.084 230.478 258.49C228.863 256.896 226.673 256 224.389 256L95.6109 256C93.3272 256 91.137 256.896 89.5221 258.49C87.9072 260.084 87 262.246 87 264.5Z" fill="#0097B7"/>
<path d="M87 216.5C86.9991 217.616 87.2212 218.722 87.6536 219.754C88.086 220.786 88.7203 221.723 89.5201 222.512C90.3198 223.302 91.2695 223.928 92.3146 224.355C93.3597 224.782 94.4799 225.001 95.6109 225L224.389 225C226.673 225 228.863 224.104 230.478 222.51C232.093 220.916 233 218.754 233 216.5C233 214.246 232.093 212.084 230.478 210.49C228.863 208.896 226.673 208 224.389 208L95.6109 208C93.3272 208 91.137 208.896 89.5221 210.49C87.9072 212.084 87 214.246 87 216.5Z" fill="#0097B7"/>
<path d="M87 167.5C86.9991 168.616 87.2212 169.722 87.6536 170.754C88.086 171.786 88.7203 172.723 89.5201 173.512C90.3198 174.302 91.2695 174.928 92.3146 175.355C93.3597 175.782 94.4799 176.001 95.6109 176L224.389 176C226.673 176 228.863 175.104 230.478 173.51C232.093 171.916 233 169.754 233 167.5C233 165.246 232.093 163.084 230.478 161.49C228.863 159.896 226.673 159 224.389 159L95.6109 159C93.3272 159 91.137 159.896 89.5221 161.49C87.9072 163.084 87 165.246 87 167.5Z" fill="#0097B7"/>
</svg>
