<svg width="320" height="350" viewBox="0 0 320 350" fill="none" xmlns="http://www.w3.org/2000/svg">
<path d="M266.411 350H53.5884C39.3799 349.982 25.7589 344.517 15.7129 334.805C5.66698 325.093 0.0161979 311.926 0 298.192V51.7979C0.0188973 38.0659 5.67087 24.9015 15.7165 15.1915C25.7622 5.48148 39.3817 0.018367 53.5884 0.000101154H189.498C196.558 -0.013403 203.551 1.32534 210.073 3.93902C216.595 6.55269 222.516 10.3895 227.495 15.2278L304.235 89.3345C309.252 94.1499 313.229 99.8808 315.935 106.194C318.642 112.508 320.023 119.278 320 126.112V298.192C319.984 311.926 314.333 325.093 304.287 334.805C294.241 344.517 280.62 349.982 266.411 350ZM53.5884 24.6563C46.1436 24.6641 39.0061 27.5262 33.7419 32.6145C28.4777 37.7029 25.5167 44.6019 25.5086 51.7979V298.192C25.5166 305.389 28.4773 312.289 33.7413 317.379C39.0052 322.469 46.1427 325.333 53.5884 325.344H266.411C273.857 325.333 280.994 322.469 286.258 317.379C291.522 312.289 294.483 305.389 294.491 298.192V126.082C294.504 122.492 293.778 118.934 292.356 115.618C290.934 112.301 288.843 109.29 286.206 106.762L209.456 32.6449C206.841 30.1044 203.73 28.0903 200.304 26.7191C196.879 25.3479 193.206 24.6468 189.498 24.6563H53.5884Z" fill="#0097B7"/>
<path d="M295.919 122.926H248.412C234.25 122.913 220.671 117.469 210.657 107.79C200.643 98.1099 195.011 84.9852 194.997 71.296V12.3578H220.506V71.296C220.514 78.4475 223.456 85.3039 228.688 90.3608C233.92 95.4177 241.013 98.2621 248.412 98.2699H295.919V122.926Z" fill="#0097B7"/>
<path d="M170.029 153.046H106.034C96.9665 153.046 89.6162 160.151 89.6162 168.915V227.035C89.6162 235.799 96.9665 242.903 106.034 242.903H170.029C179.096 242.903 186.447 235.799 186.447 227.035V168.915C186.447 160.151 179.096 153.046 170.029 153.046Z" fill="#0097B7"/>
<path d="M230.403 197.98V228.978C230.403 234.382 225.168 237.755 220.975 235.053L196.946 219.559L184.62 211.61C182.299 210.113 180.395 208.085 179.079 205.706C177.763 203.328 177.074 200.672 177.074 197.975C177.074 195.277 177.763 192.622 179.079 190.243C180.395 187.865 182.299 185.837 184.62 184.34L196.946 176.45L220.975 160.946C225.168 158.244 230.403 161.627 230.403 167.031V197.98Z" fill="#0097B7"/>
</svg>
