<svg width="320" height="350" viewBox="0 0 320 350" fill="none" xmlns="http://www.w3.org/2000/svg">
<path d="M195.658 0C216.524 0 236.255 9.09255 249.266 24.7042L305.036 91.6214C314.724 103.246 320 117.674 320 132.542V284.375C320 320.619 289.3 350 251.429 350H68.5714C30.7005 350 0 320.619 0 284.375V65.625C0 29.3813 30.7005 0 68.5714 0H195.658ZM195.658 21.875H68.5714C44.0892 21.875 24.102 40.2934 22.9131 63.4414L22.8571 65.625V284.375C22.8571 307.805 42.1025 326.934 66.2898 328.071L68.5714 328.125H251.429C275.911 328.125 295.898 309.707 297.087 286.559L297.143 284.375V132.542C297.143 123.531 294.236 114.762 288.855 107.42L287.167 105.262L231.397 38.3445C223.265 28.5872 211.196 22.6497 198.257 21.9456L195.658 21.875ZM121.819 160.606C125.964 164.572 126.26 170.827 122.707 175.12L121.819 176.074L111.513 185.938C98.1233 198.752 98.1233 219.527 111.513 232.341C124.424 244.698 145.071 245.139 158.534 233.665L160 232.341L167.956 224.727C172.419 220.456 179.655 220.456 184.118 224.727C188.263 228.694 188.559 234.948 185.006 239.241L184.118 240.195L176.162 247.809C153.847 269.166 117.666 269.166 95.3502 247.809C73.6218 227.015 73.05 193.64 93.6348 172.183L95.3502 170.47L105.657 160.606C110.12 156.334 117.356 156.334 121.819 160.606ZM184.193 162.905C188.656 167.177 188.656 174.102 184.193 178.373L151.868 209.309C147.405 213.581 140.168 213.581 135.705 209.309C131.242 205.038 131.242 198.113 135.705 193.841L168.03 162.905C172.493 158.634 179.729 158.634 184.193 162.905ZM224.65 124.066C246.378 144.86 246.95 178.235 226.365 199.692L224.65 201.405L218.236 207.544C213.773 211.815 206.537 211.815 202.073 207.544C197.929 203.577 197.633 197.323 201.185 193.03L202.073 192.076L208.487 185.938C221.877 173.123 221.877 152.348 208.487 139.534C195.576 127.177 174.929 126.736 161.466 138.21L160 139.534L155.888 143.468C151.425 147.74 144.189 147.74 139.726 143.468C135.582 139.502 135.286 133.248 138.838 128.954L139.726 128L143.838 124.066C166.153 102.709 202.334 102.709 224.65 124.066Z" fill="white"/>
</svg>
