<svg width="320" height="320" viewBox="0 0 320 320" fill="none" xmlns="http://www.w3.org/2000/svg">
<path fill-rule="evenodd" clip-rule="evenodd" d="M136.85 208.847C133.013 216.775 129.97 225.824 129.067 235.491L129.045 237.339C118.81 237.075 105.942 234.414 99.8111 222.786C96.9729 217.389 93.4818 213.953 89.8433 211.793C83.7808 208.195 77.128 208.055 71.3097 209.353C63.4251 211.104 57.2719 215.499 57.2719 215.499C55.3192 216.888 54.5188 219.312 55.2908 221.509C56.0628 223.712 58.2369 225.193 60.6778 225.193C66.7856 225.193 69.4762 229.54 72.0647 234.371C75.936 241.588 79.2113 250.158 85.2964 255.931C96.0476 266.127 114.854 268.853 128.925 269.116L128.795 305.968L140.148 306L140.301 263.72C140.307 262.26 139.688 260.865 138.587 259.847C137.48 258.824 135.993 258.274 134.454 258.317C122.704 258.651 103.512 257.978 93.3286 248.316C90.3655 245.504 88.339 241.809 86.4658 238.071C84.2009 233.574 82.1744 228.985 79.637 225.193C78.2349 223.093 76.6853 221.218 74.9199 219.64C77.7752 219.139 80.9369 219.215 83.8262 220.928C86.0003 222.215 87.9587 224.38 89.6616 227.601C99.3002 245.897 120.939 248.676 134.971 248.041C137.991 247.901 140.363 245.547 140.375 242.676L140.398 236.219C141.499 224.908 146.017 214.599 150.967 206.305C151.966 204.635 151.949 202.594 150.933 200.935C149.917 199.281 148.049 198.263 146.029 198.263H142.418C113.259 198.263 89.0599 180.753 89.0599 158.407V151.448C89.0599 137.046 96.4052 123.979 108.235 114.171C110.068 112.658 110.681 110.196 109.75 108.063C105.55 98.4008 105.737 88.0812 106.452 81.7472C112.685 84.3648 122.403 89.4923 129.136 98.013C130.583 99.8497 133.103 100.614 135.402 99.9143C143.906 97.3398 153.164 95.9286 162.853 95.9286C172.543 95.9286 181.801 97.3398 190.305 99.9143C192.604 100.614 195.124 99.8497 196.572 98.013C203.304 89.4923 213.022 84.3648 219.255 81.7472C219.97 88.0812 220.157 98.4008 215.957 108.063C215.026 110.196 215.639 112.658 217.472 114.171C229.302 123.979 236.647 137.046 236.647 151.448V158.407C236.647 180.753 212.448 198.263 183.289 198.263H179.678C177.658 198.263 175.79 199.281 174.774 200.935C173.758 202.594 173.741 204.635 174.74 206.305C180.428 215.832 185.559 228.032 185.559 241.351V305.984H196.912V241.351C196.912 229.481 193.455 218.353 188.857 208.847C222.212 206.622 248 184.567 248 158.407V151.448C248 135.166 240.473 120.193 227.837 108.591C233.854 91.092 229.251 73.108 229.251 73.108C228.882 71.6807 227.917 70.4527 226.577 69.7202C225.232 68.9877 223.637 68.8046 222.15 69.2139C222.15 69.2139 202.997 74.5461 190.015 88.5982C181.495 86.3684 172.356 85.1566 162.853 85.1566C153.351 85.1566 144.212 86.3684 135.686 88.5982C122.71 74.5461 103.558 69.2139 103.558 69.2139C102.07 68.8046 100.475 68.9877 99.1299 69.7202C97.7903 70.4527 96.8253 71.6807 96.4563 73.108C96.4563 73.108 91.8527 91.092 97.8697 108.591C85.234 120.193 77.707 135.166 77.707 151.448V158.407C77.707 184.567 103.495 206.622 136.85 208.847Z" fill="white"/>
<path fill-rule="evenodd" clip-rule="evenodd" d="M160 0C71.696 0 0 71.6932 0 160C0 248.307 71.696 320 160 320C248.304 320 320 248.307 320 160C320 71.6932 248.304 0 160 0ZM160 11.8538C241.769 11.8538 308.149 78.2364 308.149 160C308.149 241.764 241.769 308.146 160 308.146C78.2314 308.146 11.8509 241.764 11.8509 160C11.8509 78.2364 78.2314 11.8538 160 11.8538Z" fill="white"/>
</svg>
