<svg width="360" height="360" viewBox="0 0 360 360" fill="none" xmlns="http://www.w3.org/2000/svg">
<path d="M179.949 315C178.036 315.009 176.14 314.641 174.37 313.916C172.599 313.192 170.989 312.126 169.63 310.78L100.25 241.399C89.2956 230.505 80.6243 217.536 74.7438 203.249C68.8634 188.963 65.8918 173.647 66.003 158.198C65.9558 143.24 68.8933 128.424 74.6434 114.616C80.3935 100.807 88.8407 88.285 99.4904 77.7819C120.999 56.766 149.877 45 179.949 45C210.02 45 238.898 56.766 260.407 77.7819C271.057 88.285 279.504 100.807 285.254 114.616C291.004 128.424 293.941 143.24 293.894 158.198C294.006 173.647 291.034 188.963 285.153 203.249C279.273 217.536 270.602 230.505 259.647 241.399L190.267 310.653C188.919 312.023 187.313 313.112 185.542 313.858C183.771 314.604 181.87 314.992 179.949 315ZM179.949 57.5671C153.173 57.5055 127.454 68.007 108.374 86.7921C98.9214 96.1244 91.4252 107.248 86.3237 119.513C81.2223 131.777 78.6181 144.936 78.6636 158.219C78.5623 171.998 81.2106 185.659 86.4534 198.402C91.6962 211.144 99.4282 222.713 109.197 232.431L178.556 301.685C178.735 301.871 178.95 302.019 179.187 302.119C179.425 302.22 179.68 302.272 179.938 302.272C180.196 302.272 180.451 302.22 180.689 302.119C180.926 302.019 181.141 301.871 181.32 301.685L250.7 232.431C260.469 222.713 268.201 211.144 273.444 198.402C278.687 185.659 281.335 171.998 281.234 158.219C281.279 144.936 278.675 131.777 273.574 119.513C268.472 107.248 260.976 96.1244 251.523 86.7921C232.443 68.007 206.724 57.5055 179.949 57.5671Z" fill="#0097B7" stroke="#0097B7" stroke-width="10"/>
<path d="M179.949 216.69C166.65 216.684 153.764 212.068 143.485 203.628C133.207 195.188 126.173 183.446 123.579 170.402C120.986 157.357 122.995 143.818 129.263 132.088C135.532 120.358 145.672 111.165 157.958 106.072C170.244 100.979 183.915 100.303 196.644 104.158C209.372 108.013 220.371 116.162 227.766 127.215C235.162 138.269 238.497 151.544 237.204 164.781C235.911 178.017 230.069 190.396 220.674 199.809C215.332 205.166 208.984 209.414 201.995 212.311C195.006 215.208 187.515 216.696 179.949 216.69ZM179.949 114.371C169.573 114.388 159.523 118.001 151.511 124.595C143.499 131.19 138.021 140.358 136.01 150.538C133.999 160.717 135.579 171.28 140.482 180.425C145.384 189.571 153.305 196.734 162.895 200.695C172.486 204.657 183.154 205.17 193.081 202.15C203.008 199.129 211.581 192.76 217.339 184.128C223.098 175.496 225.686 165.134 224.663 154.808C223.639 144.482 219.068 134.83 211.727 127.496C207.554 123.325 202.599 120.019 197.146 117.767C191.693 115.515 185.849 114.361 179.949 114.371Z" fill="#0097B7" stroke="#0097B7" stroke-width="10"/>
</svg>
