<svg width="370" height="370" viewBox="0 0 370 370" fill="none" xmlns="http://www.w3.org/2000/svg">
<path d="M365 185C365 85.625 284.375 5 185 5C85.625 5 5 85.625 5 185C5 284.375 85.625 365 185 365C284.375 365 365 284.375 365 185Z" fill="#31C178" stroke="#31C178" stroke-width="10" stroke-miterlimit="10"/>
<path d="M184.949 320C183.036 320.009 181.14 319.641 179.37 318.916C177.599 318.192 175.989 317.126 174.63 315.78L105.25 246.399C94.2956 235.505 85.6243 222.536 79.7438 208.249C73.8634 193.963 70.8918 178.647 71.003 163.198C70.9558 148.24 73.8933 133.424 79.6434 119.616C85.3935 105.807 93.8407 93.285 104.49 82.7819C125.999 61.766 154.877 50 184.949 50C215.02 50 243.898 61.766 265.407 82.7819C276.057 93.285 284.504 105.807 290.254 119.616C296.004 133.424 298.941 148.24 298.894 163.198C299.006 178.647 296.034 193.963 290.153 208.249C284.273 222.536 275.602 235.505 264.647 246.399L195.267 315.653C193.919 317.023 192.313 318.112 190.542 318.858C188.771 319.604 186.87 319.992 184.949 320ZM184.949 62.5671C158.173 62.5055 132.454 73.007 113.374 91.7921C103.921 101.124 96.4252 112.248 91.3237 124.513C86.2223 136.777 83.6181 149.936 83.6636 163.219C83.5623 176.998 86.2106 190.659 91.4534 203.402C96.6962 216.144 104.428 227.713 114.197 237.431L183.556 306.685C183.735 306.871 183.95 307.019 184.187 307.119C184.425 307.22 184.68 307.272 184.938 307.272C185.196 307.272 185.451 307.22 185.689 307.119C185.926 307.019 186.141 306.871 186.32 306.685L255.7 237.431C265.469 227.713 273.201 216.144 278.444 203.402C283.687 190.659 286.335 176.998 286.234 163.219C286.279 149.936 283.675 136.777 278.574 124.513C273.472 112.248 265.976 101.124 256.523 91.7921C237.443 73.007 211.724 62.5055 184.949 62.5671Z" fill="#F1F0F0" stroke="#F1F0F0" stroke-width="10"/>
<path d="M184.949 221.69C171.65 221.684 158.764 217.068 148.485 208.628C138.207 200.188 131.173 188.446 128.579 175.402C125.986 162.357 127.995 148.818 134.263 137.088C140.532 125.358 150.672 116.165 162.958 111.072C175.244 105.979 188.915 105.303 201.644 109.158C214.372 113.013 225.371 121.162 232.766 132.215C240.162 143.269 243.497 156.544 242.204 169.781C240.911 183.017 235.069 195.396 225.674 204.809C220.332 210.166 213.984 214.414 206.995 217.311C200.006 220.208 192.515 221.696 184.949 221.69ZM184.949 119.371C174.573 119.388 164.523 123.001 156.511 129.595C148.499 136.19 143.021 145.358 141.01 155.538C138.999 165.717 140.579 176.28 145.482 185.425C150.384 194.571 158.305 201.734 167.895 205.695C177.486 209.657 188.154 210.17 198.081 207.15C208.008 204.129 216.581 197.76 222.339 189.128C228.098 180.496 230.686 170.134 229.663 159.808C228.639 149.482 224.068 139.83 216.727 132.496C212.554 128.325 207.599 125.019 202.146 122.767C196.693 120.515 190.849 119.361 184.949 119.371Z" fill="#F1F0F0" stroke="#F1F0F0" stroke-width="10"/>
</svg>
