<svg width="275" height="300" viewBox="0 0 275 300" fill="none" xmlns="http://www.w3.org/2000/svg">
<path d="M219.538 299.75H233.533L225.102 286.069L225.1 286.065C218.726 275.319 214.095 262.564 211.78 245.793L211.756 245.619L211.912 245.537C252.834 224.159 274.75 184.076 274.75 131.25C274.75 90.7923 261.626 58.0497 237.925 35.4208C214.222 12.7906 179.914 0.25 137.5 0.25C95.0856 0.25 60.7778 12.7906 37.0752 35.4208C13.3739 58.0497 0.25 90.7923 0.25 131.25C0.25 172.045 13.0863 204.787 36.6421 227.331C60.1992 249.876 94.5062 262.25 137.5 262.25H137.51H137.52H137.53H137.541H137.551H137.561H137.571H137.582H137.592H137.602H137.612H137.623H137.633H137.643H137.654H137.664H137.674H137.685H137.695H137.706H137.716H137.726H137.737H137.747H137.758H137.768H137.779H137.789H137.8H137.81H137.821H137.831H137.842H137.852H137.863H137.874H137.884H137.895H137.906H137.916H137.927H137.937H137.948H137.959H137.97H137.98H137.991H138.002H138.012H138.023H138.034H138.045H138.055H138.066H138.077H138.088H138.099H138.109H138.12H138.131H138.142H138.153H138.164H138.175H138.186H138.196H138.207H138.218H138.229H138.24H138.251H138.262H138.273H138.284H138.295H138.306H138.317H138.328H138.339H138.35H138.361H138.372H138.383H138.395H138.406H138.417H138.428H138.439H138.45H138.461H138.472H138.483H138.495H138.506H138.517H138.528H138.539H138.551H138.562H138.573H138.584H138.595H138.607H138.618H138.629H138.64H138.652H138.663H138.674H138.686H138.697H138.708H138.719H138.731H138.742H138.753H138.765H138.776H138.788H138.799H138.81H138.822H138.833H138.844H138.856H138.867H138.879H138.89H138.902H138.913H138.924H138.936H138.947H138.959H138.97H138.982H138.993H139.005H139.016H139.028H139.039H139.051H139.062H139.074H139.085H139.097H139.108H139.12H139.131H139.143H139.154H139.166H139.178H139.189H139.201H139.212H139.224H139.236H139.247H139.259H139.27H139.282H139.294H139.305H139.317H139.329H139.34H139.352H139.363H139.375H139.387H139.398H139.41H139.422H139.433H139.445H139.457H139.469H139.48H139.492H139.504H139.515H139.527H139.539H139.55H139.562H139.574H139.586H139.597H139.609H139.621H139.633H139.644H139.656H139.668H139.68H139.691H139.703H139.715H139.727H139.738H139.75H139.762H139.774H139.785H139.797H139.809H139.821H139.833H139.844H139.856H139.868H139.88H139.892H139.903H139.915H139.927H139.939H139.951H139.962H139.974H139.986H139.998H140.01H140.022H140.033H140.045H140.057H140.069H140.081H140.092H140.104H140.116H140.128H140.14H140.152H140.164H140.175H140.187H140.199H140.211H140.223H140.235H140.246H140.258H140.27H140.282H140.294H140.306H140.317H140.329H140.341H140.353H140.365H140.377H140.389H140.4H140.412H140.424H140.436H140.448H140.46H140.471H140.483H140.495H140.507H140.519H140.531H140.543H140.554H140.566H140.578H140.59H140.602H140.614H140.625H140.637H140.649H140.661H140.673H140.685H140.696H140.708H140.72H140.732H140.744H140.756H140.767H140.779H140.791H140.803H140.815H140.827H140.838H140.85H140.862H140.874H140.886H140.897H140.909H140.921H140.933H140.945H140.956H140.968H140.98H140.992H141.003H141.015H141.027H141.039H141.051H141.062H141.074H141.086H141.098H141.109H141.121H141.133H141.145H141.156H141.168H141.18H141.192H141.203H141.215H141.227H141.238H141.25H141.262H141.274H141.285H141.297H141.309H141.32H141.332H141.344H141.355H141.367H141.379H141.39H141.402H141.414H141.425H141.437H141.449H141.46H141.472H141.484H141.495H141.507H141.518H141.53H141.542H141.553H141.565H141.576H141.588H141.6H141.611H141.623H141.634H141.646H141.657H141.669H141.68H141.692H141.703H141.715H141.726H141.738H141.749H141.761H141.772H141.784H141.795H141.807H141.818H141.83H141.841H141.853H141.864H141.876H141.887H141.898H141.91H141.921H141.933H141.944H141.955H141.967H141.978H141.99H142.001H142.012H142.024H142.035H142.046H142.058H142.069H142.08H142.092H142.103H142.114H142.125H142.137H142.148H142.159H142.17H142.182H142.193H142.204H142.215H142.227H142.238H142.249H142.26H142.271H142.283H142.294H142.305H142.316H142.327H142.338H142.349H142.36H142.372H142.383H142.394H142.405H142.416H142.427H142.438H142.449H142.46H142.471H142.482H142.493H142.504H142.515H142.526H142.537H142.548H142.559H142.57H142.581H142.592H142.602H142.613H142.624H142.635H142.646H142.657H142.668H142.678H142.689H142.7H142.711H142.722H142.732H142.743H142.754H142.765H142.775H142.786H142.797H142.808H142.818H142.829H142.84H142.85H142.861H142.872H142.882H142.893H142.903H142.914H142.925H142.935H142.946H142.956H142.967H142.977H142.988H142.998H143.009H143.019H143.03H143.04H143.051H143.061H143.072H143.082H143.092H143.103H143.113H143.123H143.134H143.144H143.154H143.165H143.175H143.185H143.196H143.206H143.216H143.226H143.236H143.247H143.257H143.267H143.277H143.398L143.473 262.344C157.31 279.719 180.354 299.75 219.538 299.75ZM206.792 282.167C178.973 278.137 162.741 262.012 154.046 248.577C154.046 248.576 154.045 248.574 154.044 248.573L151.812 245.339H146.744H146.73H146.717H146.703H146.689H146.676H146.662H146.649H146.635H146.621H146.608H146.594H146.58H146.567H146.553H146.539H146.525H146.512H146.498H146.484H146.47H146.456H146.443H146.429H146.415H146.401H146.387H146.373H146.36H146.346H146.332H146.318H146.304H146.29H146.276H146.262H146.248H146.234H146.22H146.206H146.192H146.178H146.164H146.15H146.136H146.122H146.108H146.094H146.079H146.065H146.051H146.037H146.023H146.009H145.995H145.98H145.966H145.952H145.938H145.923H145.909H145.895H145.881H145.867H145.852H145.838H145.824H145.809H145.795H145.781H145.766H145.752H145.738H145.723H145.709H145.695H145.68H145.666H145.651H145.637H145.622H145.608H145.594H145.579H145.565H145.55H145.536H145.521H145.507H145.492H145.478H145.463H145.449H145.434H145.42H145.405H145.39H145.376H145.361H145.347H145.332H145.317H145.303H145.288H145.274H145.259H145.244H145.23H145.215H145.2H145.186H145.171H145.156H145.142H145.127H145.112H145.097H145.083H145.068H145.053H145.038H145.024H145.009H144.994H144.979H144.965H144.95H144.935H144.92H144.905H144.891H144.876H144.861H144.846H144.831H144.816H144.801H144.787H144.772H144.757H144.742H144.727H144.712H144.697H144.682H144.668H144.653H144.638H144.623H144.608H144.593H144.578H144.563H144.548H144.533H144.518H144.503H144.488H144.473H144.458H144.443H144.428H144.413H144.398H144.383H144.368H144.353H144.338H144.323H144.308H144.293H144.278H144.263H144.248H144.233H144.218H144.203H144.188H144.173H144.157H144.142H144.127H144.112H144.097H144.082H144.067H144.052H144.037H144.022H144.006H143.991H143.976H143.961H143.946H143.931H143.916H143.901H143.885H143.87H143.855H143.84H143.825H143.81H143.794H143.779H143.764H143.749H143.734H143.719H143.703H143.688H143.673H143.658H143.643H143.628H143.612H143.597H143.582H143.567H143.552H143.536H143.521H143.506H143.491H143.476H143.46H143.445H143.43H143.415H143.4H143.384H143.369H143.354H143.339H143.323H143.308H143.293H143.278H143.263H143.247H143.232H143.217H143.202H143.186H143.171H143.156H143.141H143.126H143.11H143.095H143.08H143.065H143.049H143.034H143.019H143.004H142.988H142.973H142.958H142.943H142.927H142.912H142.897H142.882H142.867H142.851H142.836H142.821H142.806H142.79H142.775H142.76H142.745H142.73H142.714H142.699H142.684H142.669H142.653H142.638H142.623H142.608H142.593H142.577H142.562H142.547H142.532H142.516H142.501H142.486H142.471H142.456H142.44H142.425H142.41H142.395H142.38H142.364H142.349H142.334H142.319H142.304H142.289H142.273H142.258H142.243H142.228H142.213H142.198H142.182H142.167H142.152H142.137H142.122H142.107H142.091H142.076H142.061H142.046H142.031H142.016H142.001H141.986H141.97H141.955H141.94H141.925H141.91H141.895H141.88H141.865H141.85H141.835H141.819H141.804H141.789H141.774H141.759H141.744H141.729H141.714H141.699H141.684H141.669H141.654H141.639H141.624H141.609H141.594H141.579H141.564H141.549H141.534H141.519H141.504H141.489H141.474H141.459H141.444H141.429H141.414H141.399H141.384H141.369H141.354H141.339H141.324H141.309H141.294H141.28H141.265H141.25H141.235H141.22H141.205H141.19H141.175H141.16H141.146H141.131H141.116H141.101H141.086H141.071H141.057H141.042H141.027H141.012H140.997H140.983H140.968H140.953H140.938H140.924H140.909H140.894H140.879H140.865H140.85H140.835H140.821H140.806H140.791H140.777H140.762H140.747H140.733H140.718H140.703H140.689H140.674H140.659H140.645H140.63H140.616H140.601H140.586H140.572H140.557H140.543H140.528H140.514H140.499H140.485H140.47H140.456H140.441H140.427H140.412H140.398H140.383H140.369H140.354H140.34H140.326H140.311H140.297H140.282H140.268H140.254H140.239H140.225H140.21H140.196H140.182H140.168H140.153H140.139H140.125H140.11H140.096H140.082H140.068H140.053H140.039H140.025H140.011H139.997H139.982H139.968H139.954H139.94H139.926H139.912H139.897H139.883H139.869H139.855H139.841H139.827H139.813H139.799H139.785H139.771H139.757H139.743H139.729H139.715H139.701H139.687H139.673H139.659H139.645H139.631H139.617H139.603H139.59H139.576H139.562H139.548H139.534H139.52H139.507H139.493H139.479H139.465H139.452H139.438H139.424H139.41H139.397H139.383H139.369H139.356H139.342H139.328H139.315H139.301H139.287H139.274H139.26H139.247H139.233C83.9911 245.339 53.2886 225.387 36.4085 201.119C19.5405 176.869 16.5044 148.35 16.5042 131.252C16.2149 95.7053 27.4997 67.1732 48.5031 47.5295C69.504 27.8881 100.191 17.1608 138.655 17.1608C177.119 17.1608 207.806 27.7202 228.879 47.2777C249.955 66.8376 261.384 95.3695 261.384 131.25C261.384 161.766 253.283 183.916 241.84 200.033C230.4 216.147 215.631 226.215 202.317 232.59C202.316 232.59 202.315 232.591 202.314 232.592L197.27 235.19L197.833 241.713C197.833 241.714 197.833 241.716 197.833 241.717C199.565 257.104 202.449 270.471 207.059 281.826L207.223 282.23L206.792 282.167Z" fill="url(#paint0_linear_222_218)" stroke="black" stroke-width="0.5"/>
<path fill-rule="evenodd" clip-rule="evenodd" d="M116.25 42.5C105.973 42.5 96.1166 46.5826 88.8496 53.8496C81.5826 61.1166 77.5 70.9729 77.5 81.25V118.75C77.5 129.027 81.5826 138.883 88.8496 146.15C95.2274 152.528 103.599 156.453 112.5 157.318V160V178.75C112.5 189.027 116.583 198.883 123.85 206.15C131.117 213.417 140.973 217.5 151.25 217.5H163.75C174.027 217.5 183.883 213.417 191.15 206.15C198.417 198.883 202.5 189.027 202.5 178.75V141.25C202.5 130.973 198.417 121.117 191.15 113.85C183.883 106.583 174.027 102.5 163.75 102.5H151.25C140.973 102.5 131.117 106.583 123.85 113.85C116.583 121.117 112.5 130.973 112.5 141.25V142.202C107.591 141.417 103.016 139.104 99.4562 135.544C95.0022 131.09 92.5 125.049 92.5 118.75V81.25C92.5 74.9511 95.0022 68.9102 99.4562 64.4562C103.91 60.0022 109.951 57.5 116.25 57.5H128.75C135.049 57.5 141.09 60.0022 145.544 64.4562C149.998 68.9102 152.5 74.9511 152.5 81.25C152.5 85.3921 155.858 88.75 160 88.75C164.142 88.75 167.5 85.3921 167.5 81.25C167.5 70.9729 163.417 61.1166 156.15 53.8496C148.883 46.5826 139.027 42.5 128.75 42.5H116.25ZM127.5 157.5V160V178.75C127.5 185.049 130.002 191.09 134.456 195.544C138.91 199.998 144.951 202.5 151.25 202.5H163.75C170.049 202.5 176.09 199.998 180.544 195.544C184.998 191.09 187.5 185.049 187.5 178.75V141.25C187.5 134.951 184.998 128.91 180.544 124.456C176.969 120.881 172.371 118.564 167.439 117.788C167.479 118.103 167.5 118.424 167.5 118.75C167.5 129.027 163.417 138.883 156.15 146.15C148.883 153.417 139.027 157.5 128.75 157.5H127.5ZM152.604 117.5C152.535 117.907 152.5 118.324 152.5 118.75C152.5 125.049 149.998 131.09 145.544 135.544C141.09 139.998 135.049 142.5 128.75 142.5H127.5V141.25C127.5 134.951 130.002 128.91 134.456 124.456C138.91 120.002 144.951 117.5 151.25 117.5H152.604Z" fill="url(#paint1_linear_222_218)"/>
<path d="M88.8496 53.8496L89.0264 54.0264L89.0264 54.0264L88.8496 53.8496ZM88.8496 146.15L88.6728 146.327L88.6728 146.327L88.8496 146.15ZM112.5 157.318H112.75C112.75 157.19 112.652 157.082 112.524 157.069L112.5 157.318ZM191.15 113.85L191.327 113.673L191.327 113.673L191.15 113.85ZM112.5 142.202L112.461 142.449C112.533 142.461 112.607 142.44 112.662 142.392C112.718 142.345 112.75 142.275 112.75 142.202H112.5ZM99.4562 135.544L99.633 135.367L99.633 135.367L99.4562 135.544ZM99.4562 64.4562L99.633 64.633L99.633 64.633L99.4562 64.4562ZM145.544 64.4562L145.367 64.633L145.367 64.633L145.544 64.4562ZM156.15 53.8496L156.327 53.6728L156.327 53.6728L156.15 53.8496ZM127.5 157.5V157.25C127.362 157.25 127.25 157.362 127.25 157.5H127.5ZM180.544 124.456L180.367 124.633L180.367 124.633L180.544 124.456ZM167.439 117.788L167.478 117.541C167.4 117.529 167.321 117.554 167.265 117.609C167.208 117.664 167.181 117.742 167.191 117.82L167.439 117.788ZM156.15 146.15L156.327 146.327L156.327 146.327L156.15 146.15ZM152.604 117.5L152.85 117.541C152.862 117.469 152.842 117.395 152.795 117.339C152.747 117.282 152.677 117.25 152.604 117.25V117.5ZM127.5 142.5H127.25C127.25 142.638 127.362 142.75 127.5 142.75V142.5ZM134.456 124.456L134.633 124.633L134.633 124.633L134.456 124.456ZM89.0264 54.0264C96.2465 46.8062 106.039 42.75 116.25 42.75V42.25C105.907 42.25 95.9868 46.3589 88.6728 53.6728L89.0264 54.0264ZM77.75 81.25C77.75 71.0392 81.8062 61.2465 89.0264 54.0264L88.6728 53.6728C81.3589 60.9868 77.25 70.9066 77.25 81.25H77.75ZM77.75 118.75V81.25H77.25V118.75H77.75ZM89.0264 145.974C81.8062 138.753 77.75 128.961 77.75 118.75H77.25C77.25 129.093 81.3589 139.013 88.6728 146.327L89.0264 145.974ZM112.524 157.069C103.681 156.21 95.363 152.31 89.0264 145.974L88.6728 146.327C95.0917 152.746 103.518 156.696 112.476 157.567L112.524 157.069ZM112.75 160V157.318H112.25V160H112.75ZM112.75 178.75V160H112.25V178.75H112.75ZM124.026 205.974C116.806 198.753 112.75 188.961 112.75 178.75H112.25C112.25 189.093 116.359 199.013 123.673 206.327L124.026 205.974ZM151.25 217.25C141.039 217.25 131.247 213.194 124.026 205.974L123.673 206.327C130.987 213.641 140.907 217.75 151.25 217.75V217.25ZM163.75 217.25H151.25V217.75H163.75V217.25ZM190.974 205.974C183.753 213.194 173.961 217.25 163.75 217.25V217.75C174.093 217.75 184.013 213.641 191.327 206.327L190.974 205.974ZM202.25 178.75C202.25 188.961 198.194 198.753 190.974 205.974L191.327 206.327C198.641 199.013 202.75 189.093 202.75 178.75H202.25ZM202.25 141.25V178.75H202.75V141.25H202.25ZM190.974 114.026C198.194 121.247 202.25 131.039 202.25 141.25H202.75C202.75 130.907 198.641 120.987 191.327 113.673L190.974 114.026ZM163.75 102.75C173.961 102.75 183.753 106.806 190.974 114.026L191.327 113.673C184.013 106.359 174.093 102.25 163.75 102.25V102.75ZM151.25 102.75H163.75V102.25H151.25V102.75ZM124.026 114.026C131.247 106.806 141.039 102.75 151.25 102.75V102.25C140.907 102.25 130.987 106.359 123.673 113.673L124.026 114.026ZM112.75 141.25C112.75 131.039 116.806 121.247 124.026 114.026L123.673 113.673C116.359 120.987 112.25 130.907 112.25 141.25H112.75ZM112.75 142.202V141.25H112.25V142.202H112.75ZM99.2794 135.721C102.877 139.318 107.499 141.656 112.461 142.449L112.539 141.955C107.682 141.179 103.156 138.89 99.633 135.367L99.2794 135.721ZM92.25 118.75C92.25 125.115 94.7786 131.22 99.2794 135.721L99.633 135.367C95.2259 130.96 92.75 124.983 92.75 118.75H92.25ZM92.25 81.25V118.75H92.75V81.25H92.25ZM99.2794 64.2794C94.7786 68.7803 92.25 74.8848 92.25 81.25H92.75C92.75 75.0174 95.2259 69.0401 99.633 64.633L99.2794 64.2794ZM116.25 57.25C109.885 57.25 103.78 59.7786 99.2794 64.2794L99.633 64.633C104.04 60.2259 110.017 57.75 116.25 57.75V57.25ZM128.75 57.25H116.25V57.75H128.75V57.25ZM145.721 64.2794C141.22 59.7786 135.115 57.25 128.75 57.25V57.75C134.983 57.75 140.96 60.2259 145.367 64.633L145.721 64.2794ZM152.75 81.25C152.75 74.8848 150.221 68.7803 145.721 64.2794L145.367 64.633C149.774 69.0401 152.25 75.0174 152.25 81.25H152.75ZM160 88.5C155.996 88.5 152.75 85.2541 152.75 81.25H152.25C152.25 85.5302 155.72 89 160 89V88.5ZM167.25 81.25C167.25 85.2541 164.004 88.5 160 88.5V89C164.28 89 167.75 85.5302 167.75 81.25H167.25ZM155.974 54.0264C163.194 61.2465 167.25 71.0392 167.25 81.25H167.75C167.75 70.9066 163.641 60.9868 156.327 53.6728L155.974 54.0264ZM128.75 42.75C138.961 42.75 148.753 46.8062 155.974 54.0264L156.327 53.6728C149.013 46.3589 139.093 42.25 128.75 42.25V42.75ZM116.25 42.75H128.75V42.25H116.25V42.75ZM127.25 157.5V160H127.75V157.5H127.25ZM127.25 160V178.75H127.75V160H127.25ZM127.25 178.75C127.25 185.115 129.779 191.22 134.279 195.721L134.633 195.367C130.226 190.96 127.75 184.983 127.75 178.75H127.25ZM134.279 195.721C138.78 200.221 144.885 202.75 151.25 202.75V202.25C145.017 202.25 139.04 199.774 134.633 195.367L134.279 195.721ZM151.25 202.75H163.75V202.25H151.25V202.75ZM163.75 202.75C170.115 202.75 176.22 200.221 180.721 195.721L180.367 195.367C175.96 199.774 169.983 202.25 163.75 202.25V202.75ZM180.721 195.721C185.221 191.22 187.75 185.115 187.75 178.75H187.25C187.25 184.983 184.774 190.96 180.367 195.367L180.721 195.721ZM187.75 178.75V141.25H187.25V178.75H187.75ZM187.75 141.25C187.75 134.885 185.221 128.78 180.721 124.279L180.367 124.633C184.774 129.04 187.25 135.017 187.25 141.25H187.75ZM180.721 124.279C177.108 120.667 172.462 118.325 167.478 117.541L167.4 118.035C172.281 118.802 176.83 121.096 180.367 124.633L180.721 124.279ZM167.191 117.82C167.23 118.124 167.25 118.435 167.25 118.75H167.75C167.75 118.413 167.729 118.082 167.687 117.756L167.191 117.82ZM167.25 118.75C167.25 128.961 163.194 138.753 155.974 145.974L156.327 146.327C163.641 139.013 167.75 129.093 167.75 118.75H167.25ZM155.974 145.974C148.753 153.194 138.961 157.25 128.75 157.25V157.75C139.093 157.75 149.013 153.641 156.327 146.327L155.974 145.974ZM128.75 157.25H127.5V157.75H128.75V157.25ZM152.75 118.75C152.75 118.338 152.784 117.934 152.85 117.541L152.357 117.459C152.287 117.879 152.25 118.31 152.25 118.75H152.75ZM145.721 135.721C150.221 131.22 152.75 125.115 152.75 118.75H152.25C152.25 124.983 149.774 130.96 145.367 135.367L145.721 135.721ZM128.75 142.75C135.115 142.75 141.22 140.221 145.721 135.721L145.367 135.367C140.96 139.774 134.983 142.25 128.75 142.25V142.75ZM127.5 142.75H128.75V142.25H127.5V142.75ZM127.25 141.25V142.5H127.75V141.25H127.25ZM134.279 124.279C129.779 128.78 127.25 134.885 127.25 141.25H127.75C127.75 135.017 130.226 129.04 134.633 124.633L134.279 124.279ZM151.25 117.25C144.885 117.25 138.78 119.779 134.279 124.279L134.633 124.633C139.04 120.226 145.017 117.75 151.25 117.75V117.25ZM152.604 117.25H151.25V117.75H152.604V117.25Z" fill="black"/>
<defs>
<linearGradient id="paint0_linear_222_218" x1="137.5" y1="0" x2="137.5" y2="300" gradientUnits="userSpaceOnUse">
<stop stop-color="#007B95"/>
<stop offset="0.447917" stop-color="#D0E6E6"/>
<stop offset="1" stop-color="#D58800"/>
</linearGradient>
<linearGradient id="paint1_linear_222_218" x1="140" y1="42.5" x2="140" y2="217.5" gradientUnits="userSpaceOnUse">
<stop stop-color="#007B95"/>
<stop offset="0.4375" stop-color="#D0E5E5"/>
<stop offset="1" stop-color="#D58800"/>
</linearGradient>
</defs>
</svg>
