<svg width="320" height="320" viewBox="0 0 320 320" fill="none" xmlns="http://www.w3.org/2000/svg">
<path fill-rule="evenodd" clip-rule="evenodd" d="M160 0C71.696 0 0 71.6932 0 160C0 248.307 71.696 320 160 320C248.304 320 320 248.307 320 160C320 71.6932 248.304 0 160 0ZM160 11.8538C241.769 11.8538 308.149 78.2364 308.149 160C308.149 241.764 241.769 308.146 160 308.146C78.2314 308.146 11.8509 241.764 11.8509 160C11.8509 78.2364 78.2314 11.8538 160 11.8538Z" fill="white"/>
<path d="M87.8999 113.779C95.8201 131.391 154.491 182.761 160.065 183.055C165.639 183.35 256.578 101.744 253.938 96.1667C251.297 90.589 70.0062 88.8274 65.0179 94.4051C60.0311 99.9828 61.7899 222.977 66.1909 226.5C70.5919 230.023 248.949 230.316 252.763 224.152C256.577 217.988 260.683 129.631 255.697 124.348" stroke="white" stroke-width="12" stroke-miterlimit="10" stroke-linecap="round" stroke-linejoin="round"/>
</svg>
