<svg width="320" height="320" viewBox="0 0 320 320" fill="none" xmlns="http://www.w3.org/2000/svg">
<path d="M104.503 320C90.9359 320 77.7089 317.557 65.1872 312.737C52.214 307.744 40.5806 300.417 30.6081 290.959C20.6355 281.5 12.9135 270.459 7.65482 258.15C2.57524 246.269 0 233.719 0 220.847C0 207.974 2.57524 195.421 7.65482 183.54C12.9135 171.231 20.6393 160.193 30.6081 150.731L30.6342 150.706L168.335 20.6806C175.434 13.9488 183.719 8.72904 192.96 5.17368C201.877 1.74227 211.293 0 220.952 0C230.607 0 240.024 1.74227 248.944 5.17368C258.185 8.72904 266.467 13.9488 273.569 20.6806C280.668 27.4159 286.165 35.2774 289.916 44.0454C293.533 52.5088 295.365 61.4433 295.365 70.6079C295.365 79.7725 293.533 88.7069 289.916 97.1704C286.165 105.938 280.668 113.796 273.569 120.535L136.171 250.894C131.897 254.948 126.915 258.086 121.346 260.232C115.979 262.296 110.31 263.344 104.499 263.344C98.6878 263.344 93.0222 262.296 87.6516 260.232C82.0868 258.089 77.1005 254.948 72.8271 250.894C68.5537 246.842 65.2469 242.111 62.9889 236.832C60.8205 231.736 59.7158 226.36 59.7158 220.847C59.7158 215.333 60.8205 209.954 62.9964 204.862C65.2507 199.582 68.5612 194.847 72.8346 190.792L199.51 70.6043C205.34 65.073 214.794 65.073 220.624 70.6043C226.453 76.1357 226.453 85.1055 220.624 90.6369L93.9478 210.825C91.1263 213.506 89.5737 217.065 89.5737 220.847C89.5737 224.629 91.1263 228.184 93.9478 230.861C96.7657 233.538 100.517 235.011 104.503 235.011C108.489 235.011 112.24 233.538 115.057 230.861L252.456 100.499C260.872 92.5137 265.507 81.8972 265.507 70.6079C265.507 59.3185 260.872 48.6985 252.456 40.7167C244.043 32.7277 232.854 28.3296 220.952 28.3296C209.05 28.3296 197.857 32.7277 189.448 40.7131L189.422 40.7379L51.7101 170.774C44.5853 177.538 39.069 185.417 35.3181 194.188C31.6979 202.67 29.8579 211.643 29.8579 220.847C29.8579 230.05 31.6979 239.02 35.3219 247.501C39.0765 256.28 44.589 264.159 51.725 270.923C58.8536 277.686 67.1616 282.924 76.4063 286.483C85.3488 289.925 94.8025 291.67 104.503 291.67C114.203 291.67 123.66 289.925 132.599 286.483C141.851 282.924 150.152 277.69 157.284 270.923L294.518 140.713C300.348 135.182 309.802 135.182 315.628 140.713C321.457 146.244 321.457 155.214 315.628 160.745L178.393 290.955C168.425 300.414 156.791 307.74 143.814 312.733C131.3 317.557 118.069 320 104.503 320Z" fill="#F3B64A"/>
</svg>
