<svg width="340" height="340" viewBox="0 0 340 340" fill="none" xmlns="http://www.w3.org/2000/svg">
<path d="M330 170C330 81.6667 258.333 10 170 10C81.6667 10 10 81.6667 10 170C10 258.333 81.6667 330 170 330C258.333 330 330 258.333 330 170Z" fill="#F29A00" fill-opacity="0.7"/>
<path d="M335 170C335 78.9052 261.095 5 170 5C78.9052 5 5 78.9052 5 170C5 261.095 78.9052 335 170 335C261.095 335 335 261.095 335 170Z" stroke="#F29A00" stroke-opacity="0.7" stroke-width="10" stroke-miterlimit="10"/>
<path d="M257.238 82.843C255.492 81.1073 253.126 80.1324 250.66 80.1324C248.193 80.1324 245.827 81.1073 244.082 82.843L169.984 156.869L95.9185 82.7195C94.1697 80.9782 91.7979 80 89.3248 80C86.8517 80 84.4799 80.9782 82.7312 82.7195C80.9824 84.4607 80 86.8223 80 89.2848C80 91.7473 80.9824 94.1089 82.7312 95.8502L156.828 170L82.7312 244.15C80.9865 245.891 80.0081 248.251 80.011 250.711C80.0139 253.17 80.9979 255.528 82.7467 257.265C84.4954 259.002 86.8656 259.977 89.3358 259.974C91.806 259.971 94.1738 258.991 95.9185 257.25L169.984 183.131L244.082 257.281C245.83 259.022 248.202 260 250.675 260C253.148 260 255.52 259.022 257.269 257.281C259.018 255.539 260 253.178 260 250.715C260 248.253 259.018 245.891 257.269 244.15L183.141 170L257.269 95.8502C258.98 94.1121 259.935 91.7739 259.93 89.3403C259.924 86.9067 258.957 84.5729 257.238 82.843Z" fill="white"/>
</svg>
