<svg width="320" height="320" viewBox="0 0 320 320" fill="none" xmlns="http://www.w3.org/2000/svg">
<path d="M160 0C128.355 0 97.4207 9.38384 71.1088 26.9649C44.797 44.5459 24.2894 69.5345 12.1793 98.7706C0.069325 128.007 -3.09921 160.177 3.07443 191.214C9.24806 222.251 24.4866 250.761 46.863 273.137C69.2394 295.513 97.7487 310.752 128.786 316.926C159.823 323.099 191.993 319.931 221.229 307.821C250.466 295.711 275.454 275.203 293.035 248.891C310.616 222.579 320 191.645 320 160C319.954 117.58 303.082 76.9099 273.086 46.9141C243.09 16.9183 202.421 0.0463214 160 0ZM160 305C131.322 305 103.288 296.496 79.4424 280.563C55.5973 264.63 37.0122 241.984 26.0375 215.489C15.0628 188.994 12.1913 159.839 17.7862 131.712C23.3811 103.585 37.191 77.7481 57.4696 57.4695C77.7482 37.1909 103.585 23.381 131.712 17.7861C159.839 12.1913 188.994 15.0628 215.489 26.0375C241.984 37.0122 264.63 55.5972 280.563 79.4423C296.496 103.287 305 131.322 305 160C304.954 198.442 289.662 235.297 262.479 262.479C235.297 289.662 198.442 304.954 160 305Z" fill="#F29A00"/>
<path d="M230.3 89.475C228.894 88.0705 226.988 87.2816 225 87.2816C223.013 87.2816 221.106 88.0705 219.7 89.475L160 149.375L100.325 89.375C98.9161 87.966 97.0051 87.1745 95.0125 87.1745C93.0199 87.1745 91.109 87.966 89.7 89.375C88.2911 90.784 87.4995 92.6949 87.4995 94.6875C87.4995 96.6801 88.2911 98.591 89.7 100L149.4 160L89.7 220C88.2944 221.409 87.506 223.319 87.5083 225.309C87.5107 227.299 88.3036 229.207 89.7125 230.613C91.1215 232.018 93.0311 232.807 95.0214 232.804C97.0116 232.802 98.9194 232.009 100.325 230.6L160 170.625L219.7 230.625C221.109 232.034 223.02 232.826 225.013 232.826C227.005 232.826 228.916 232.034 230.325 230.625C231.734 229.216 232.526 227.305 232.526 225.312C232.526 223.32 231.734 221.409 230.325 220L170.6 160L230.325 100C231.703 98.5937 232.473 96.7016 232.469 94.7324C232.464 92.7632 231.685 90.8748 230.3 89.475Z" fill="#F29A00"/>
</svg>
