<svg width="380" height="380" viewBox="0 0 380 380" fill="none" xmlns="http://www.w3.org/2000/svg">
<path d="M10 190C10 90.625 90.625 10 190 10C289.375 10 370 90.625 370 190C370 289.375 289.375 370 190 370C90.625 370 10 289.375 10 190Z" stroke="white" stroke-width="20" stroke-miterlimit="10"/>
<path d="M227.183 93.7626C229.133 91.9444 231.713 90.9546 234.379 91.0016C237.045 91.0487 239.588 92.1289 241.473 94.0148C243.358 95.9007 244.438 98.4449 244.485 101.112C244.532 103.778 243.543 106.359 241.725 108.31L159.822 190.243L241.725 272.176C242.736 273.119 243.547 274.255 244.109 275.518C244.672 276.78 244.974 278.143 244.998 279.525C245.023 280.907 244.769 282.28 244.251 283.562C243.734 284.844 242.963 286.008 241.986 286.985C241.009 287.963 239.845 288.733 238.564 289.251C237.283 289.769 235.911 290.023 234.529 289.998C233.148 289.974 231.785 289.672 230.523 289.109C229.261 288.546 228.125 287.735 227.183 286.724L138.009 197.517C136.082 195.587 135 192.971 135 190.243C135 187.516 136.082 184.899 138.009 182.969L227.183 93.7626Z" fill="white"/>
</svg>
