<svg width="380" height="380" viewBox="0 0 380 380" fill="none" xmlns="http://www.w3.org/2000/svg">
<path d="M10 190C10 90.625 90.625 10 190 10C289.375 10 370 90.625 370 190C370 289.375 289.375 370 190 370C90.625 370 10 289.375 10 190Z" fill="white"/>
<path d="M10 190C10 90.625 90.625 10 190 10C289.375 10 370 90.625 370 190C370 289.375 289.375 370 190 370C90.625 370 10 289.375 10 190Z" fill="white"/>
<path d="M10 190C10 90.625 90.625 10 190 10C289.375 10 370 90.625 370 190C370 289.375 289.375 370 190 370C90.625 370 10 289.375 10 190Z" stroke="white" stroke-width="20" stroke-miterlimit="10"/>
<path d="M236.648 68.4706C239.095 66.1864 242.331 64.9429 245.675 65.002C249.019 65.0611 252.21 66.4182 254.575 68.7874C256.94 71.1566 258.295 74.3529 258.354 77.7029C258.413 81.053 257.172 84.2951 254.892 86.7464L152.141 189.677L254.892 292.608C256.16 293.792 257.177 295.22 257.883 296.806C258.588 298.392 258.967 300.105 258.998 301.841C259.029 303.577 258.71 305.302 258.061 306.912C257.411 308.522 256.445 309.985 255.219 311.213C253.993 312.441 252.533 313.409 250.926 314.059C249.319 314.709 247.597 315.029 245.864 314.998C244.131 314.967 242.421 314.587 240.838 313.881C239.255 313.174 237.829 312.155 236.648 310.884L124.775 198.815C122.358 196.391 121 193.104 121 189.677C121 186.251 122.358 182.964 124.775 180.54L236.648 68.4706Z" fill="#0097B7"/>
</svg>
