<svg width="360" height="360" viewBox="0 0 360 360" fill="none" xmlns="http://www.w3.org/2000/svg">
<path d="M360 180C360 80.625 279.375 0 180 0C80.625 0 0 80.625 0 180C0 279.375 80.625 360 180 360C279.375 360 360 279.375 360 180Z" fill="#31C178"/>
<path d="M259.457 171.257V146.37C259.457 105.356 214.703 71.9999 171.229 71.9999C127.754 71.9999 83 105.356 83 146.37V171.257" fill="#31C178"/>
<path d="M259.457 171.257V146.37C259.457 105.356 214.703 71.9999 171.229 71.9999C127.754 71.9999 83 105.356 83 146.37V171.257" stroke="#F1F0F0" stroke-width="25" stroke-linecap="round" stroke-linejoin="round"/>
<path d="M224.166 228.606L276 280.44" stroke="#F1F0F0" stroke-width="25" stroke-linecap="round" stroke-linejoin="round"/>
<path d="M259.457 145.891V170.778C259.457 211.792 214.703 245.148 171.229 245.148C127.754 245.148 83 211.792 83 170.778V145.891" fill="#31C178"/>
<path d="M259.457 145.891V170.778C259.457 211.792 214.703 245.148 171.229 245.148C127.754 245.148 83 211.792 83 170.778V145.891" stroke="#F1F0F0" stroke-width="25" stroke-linecap="round" stroke-linejoin="round"/>
</svg>
