<svg width="370" height="370" viewBox="0 0 370 370" fill="none" xmlns="http://www.w3.org/2000/svg">
<path d="M365 185C365 85.625 284.375 5 185 5C85.625 5 5 85.625 5 185C5 284.375 85.625 365 185 365C284.375 365 365 284.375 365 185Z" stroke="#0097B7" stroke-width="10" stroke-miterlimit="10"/>
<path d="M154.61 105.265C153.011 103.774 150.895 102.963 148.71 103.001C146.524 103.04 144.438 103.925 142.892 105.471C141.346 107.017 140.461 109.103 140.422 111.289C140.384 113.475 141.195 115.59 142.685 117.19L209.848 184.352L142.685 251.515C141.856 252.287 141.192 253.218 140.73 254.253C140.269 255.288 140.021 256.406 140.001 257.539C139.981 258.672 140.19 259.797 140.614 260.847C141.038 261.898 141.67 262.852 142.471 263.654C143.273 264.455 144.227 265.087 145.277 265.511C146.328 265.935 147.453 266.144 148.586 266.124C149.719 266.104 150.837 265.856 151.872 265.395C152.907 264.933 153.838 264.269 154.61 263.44L227.735 190.315C229.316 188.732 230.203 186.588 230.203 184.352C230.203 182.116 229.316 179.972 227.735 178.39L154.61 105.265Z" fill="#0097B7"/>
</svg>
