<svg width="360" height="360" viewBox="0 0 360 360" fill="none" xmlns="http://www.w3.org/2000/svg">
<path d="M180 5C276.614 5 355 83.3864 355 180C355 276.614 276.614 355 180 355C83.3864 355 5 276.614 5 180C5 83.3864 83.3864 5 180 5Z" fill="#31C178" stroke="#31C178" stroke-width="10" stroke-miterlimit="10"/>
<path d="M149.61 100.265C148.011 98.7741 145.895 97.9627 143.71 98.0013C141.524 98.0399 139.438 98.9254 137.892 100.471C136.346 102.017 135.461 104.103 135.422 106.289C135.384 108.475 136.195 110.59 137.685 112.19L204.848 179.352L137.685 246.515C136.856 247.287 136.192 248.218 135.73 249.253C135.269 250.288 135.021 251.406 135.001 252.539C134.981 253.672 135.19 254.797 135.614 255.847C136.038 256.898 136.67 257.852 137.471 258.654C138.273 259.455 139.227 260.087 140.277 260.511C141.328 260.935 142.453 261.144 143.586 261.124C144.719 261.104 145.837 260.856 146.872 260.395C147.907 259.933 148.838 259.268 149.61 258.44L222.735 185.315C224.316 183.732 225.203 181.588 225.203 179.352C225.203 177.116 224.316 174.972 222.735 173.39L149.61 100.265Z" fill="white" stroke="white"/>
</svg>
