<svg width="360" height="360" viewBox="0 0 360 360" fill="none" xmlns="http://www.w3.org/2000/svg">
<path d="M147.267 295C141.517 295 137.684 291.167 137.684 285.417V74.5833C137.684 68.8333 141.517 65 147.267 65C153.017 65 156.851 68.8333 156.851 74.5833V285.417C156.851 291.167 153.017 295 147.267 295Z" fill="#0097B7" stroke="#0097B7" stroke-width="5"/>
<path d="M233.517 189.583C230.642 189.583 228.726 188.625 226.809 186.708L198.059 157.958C194.226 154.125 194.226 148.375 198.059 144.542C201.892 140.708 207.642 140.708 211.476 144.542L240.226 173.292C244.059 177.125 244.059 182.875 240.226 186.708C238.309 188.625 236.392 189.583 233.517 189.583Z" fill="#0097B7" stroke="#0097B7" stroke-width="5"/>
<path d="M204.767 218.333C201.892 218.333 199.976 217.375 198.059 215.458C194.226 211.625 194.226 205.875 198.059 202.042L226.809 173.292C230.642 169.458 236.392 169.458 240.226 173.292C244.059 177.125 244.059 182.875 240.226 186.708L211.476 215.458C209.559 217.375 207.642 218.333 204.767 218.333Z" fill="#0097B7" stroke="#0097B7" stroke-width="5"/>
<path d="M256.667 295H103.333C82.25 295 65 277.75 65 256.667V103.333C65 82.25 82.25 65 103.333 65H256.667C277.75 65 295 82.25 295 103.333V256.667C295 277.75 277.75 295 256.667 295ZM103.333 84.1667C92.7917 84.1667 84.1667 92.7917 84.1667 103.333V256.667C84.1667 267.208 92.7917 275.833 103.333 275.833H256.667C267.208 275.833 275.833 267.208 275.833 256.667V103.333C275.833 92.7917 267.208 84.1667 256.667 84.1667H103.333Z" fill="#0097B7" stroke="#0097B7" stroke-width="5"/>
</svg>
