<svg width="370" height="370" viewBox="0 0 370 370" fill="none" xmlns="http://www.w3.org/2000/svg">
<path d="M365 185C365 85.625 284.375 5 185 5C85.625 5 5 85.625 5 185C5 284.375 85.625 365 185 365C284.375 365 365 284.375 365 185Z" fill="#31C178" stroke="#31C178" stroke-width="10" stroke-miterlimit="10"/>
<path d="M152.267 300C146.517 300 142.684 296.167 142.684 290.417V79.5833C142.684 73.8333 146.517 70 152.267 70C158.017 70 161.851 73.8333 161.851 79.5833V290.417C161.851 296.167 158.017 300 152.267 300Z" fill="#F1F0F0" stroke="#F1F0F0" stroke-width="5"/>
<path d="M238.517 194.583C235.642 194.583 233.726 193.625 231.809 191.708L203.059 162.958C199.226 159.125 199.226 153.375 203.059 149.542C206.892 145.708 212.642 145.708 216.476 149.542L245.226 178.292C249.059 182.125 249.059 187.875 245.226 191.708C243.309 193.625 241.392 194.583 238.517 194.583Z" fill="#F1F0F0" stroke="#F1F0F0" stroke-width="5"/>
<path d="M209.767 223.333C206.892 223.333 204.976 222.375 203.059 220.458C199.226 216.625 199.226 210.875 203.059 207.042L231.809 178.292C235.642 174.458 241.392 174.458 245.226 178.292C249.059 182.125 249.059 187.875 245.226 191.708L216.476 220.458C214.559 222.375 212.642 223.333 209.767 223.333Z" fill="#F1F0F0" stroke="#F1F0F0" stroke-width="5"/>
<path d="M261.667 300H108.333C87.25 300 70 282.75 70 261.667V108.333C70 87.25 87.25 70 108.333 70H261.667C282.75 70 300 87.25 300 108.333V261.667C300 282.75 282.75 300 261.667 300ZM108.333 89.1667C97.7917 89.1667 89.1667 97.7917 89.1667 108.333V261.667C89.1667 272.208 97.7917 280.833 108.333 280.833H261.667C272.208 280.833 280.833 272.208 280.833 261.667V108.333C280.833 97.7917 272.208 89.1667 261.667 89.1667H108.333Z" fill="#F1F0F0" stroke="#F1F0F0" stroke-width="5"/>
</svg>
