<svg width="370" height="370" viewBox="0 0 370 370" fill="none" xmlns="http://www.w3.org/2000/svg">
<path d="M365 185C365 85.625 284.375 5 185 5C85.625 5 5 85.625 5 185C5 284.375 85.625 365 185 365C284.375 365 365 284.375 365 185Z" fill="#F29A00" stroke="#F29A00" stroke-width="10" stroke-miterlimit="10"/>
<path d="M265 234C265 267.057 224.42 293.941 185 293.941C145.58 293.941 105 267.057 105 234" stroke="white" stroke-width="25" stroke-linecap="round" stroke-linejoin="round"/>
<path d="M130 108.5C137.389 108.5 142.5 114.125 142.5 120V152C142.5 157.875 137.389 163.5 130 163.5C122.611 163.5 117.5 157.875 117.5 152V120C117.5 114.125 122.611 108.5 130 108.5Z" fill="#F29A00" stroke="white" stroke-width="25"/>
<path d="M240 108.5C247.389 108.5 252.5 114.125 252.5 120V152C252.5 157.875 247.389 163.5 240 163.5C232.611 163.5 227.5 157.875 227.5 152V120C227.5 114.125 232.611 108.5 240 108.5Z" fill="#F29A00" stroke="white" stroke-width="25"/>
</svg>
