<svg width="320" height="320" viewBox="0 0 320 320" fill="none" xmlns="http://www.w3.org/2000/svg">
<path fill-rule="evenodd" clip-rule="evenodd" d="M166.786 149.023C145.906 168.239 125.524 186.426 125.524 186.426C122.706 188.939 122.465 193.26 124.977 196.079C127.49 198.892 131.811 199.139 134.63 196.626C134.63 196.626 188.021 148.969 210.819 126.171C214.299 122.697 215.345 120.035 215.531 118.929C216.006 116.116 215.02 114.132 213.602 112.69C212.562 111.626 211.017 110.616 208.649 110.514C207.489 110.466 204.911 110.917 201.437 112.552C181.566 121.898 102.552 174.538 102.552 174.538C99.4089 176.629 98.5614 180.879 100.653 184.016C102.751 187.16 107 188.007 110.138 185.916C110.138 185.916 139.547 166.297 166.786 149.023Z" fill="white"/>
<path fill-rule="evenodd" clip-rule="evenodd" d="M100.857 185.639L115.487 233.23C115.541 233.404 115.601 233.578 115.667 233.747C117.224 237.654 118.786 239.925 119.904 241.001C121.924 242.949 123.997 243.4 125.716 243.352C128.133 243.279 132.027 241.837 133.572 236.109C133.68 235.688 133.758 235.261 133.789 234.829L136 204.368L193.791 246.874C199.729 251.381 205.067 252.337 209.112 251.105C213.283 249.831 217.322 246.008 219.233 237.87C219.245 237.822 219.257 237.774 219.263 237.726L247.789 103.313C249.49 96.1549 248.534 90.8056 246.208 87.6802C243.51 84.0439 238.407 81.5735 229.728 83.9176C229.493 83.9777 229.259 84.0558 229.037 84.146L61.4885 149.125C61.23 149.227 60.9775 149.348 60.7311 149.474C52.7913 153.735 51.0243 158.61 51.0002 161.765C50.9702 166.015 53.9513 170.126 59.0121 172.157C59.1624 172.218 59.3127 172.278 59.469 172.326L100.857 185.639ZM234.933 96.8101C234.867 97.7838 234.734 99.1061 234.47 100.218C234.452 100.278 234.44 100.338 234.428 100.398L205.908 234.793C205.668 235.784 205.193 236.92 204.874 237.63C204.117 237.257 202.909 236.626 202.037 235.959C202.001 235.935 201.971 235.911 201.935 235.886L134.125 186.018C132.124 184.545 129.473 184.275 127.213 185.314C124.953 186.36 123.438 188.548 123.258 191.03L122.026 207.962L112.878 178.216C112.223 176.082 110.564 174.399 108.436 173.714L68.8032 160.96L233.592 97.0445C234.037 96.9423 234.506 96.8642 234.933 96.8101Z" fill="white"/>
<path fill-rule="evenodd" clip-rule="evenodd" d="M130.2 241.651L159.928 215.98C162.783 213.516 163.101 209.194 160.637 206.339C158.167 203.484 153.845 203.166 150.99 205.63L121.268 231.301C118.407 233.765 118.095 238.086 120.559 240.941C123.023 243.802 127.345 244.115 130.2 241.651Z" fill="white"/>
<path fill-rule="evenodd" clip-rule="evenodd" d="M160 0C71.696 0 0 71.6932 0 160C0 248.307 71.696 320 160 320C248.304 320 320 248.307 320 160C320 71.6932 248.304 0 160 0ZM160 11.8538C241.769 11.8538 308.149 78.2364 308.149 160C308.149 241.764 241.769 308.146 160 308.146C78.2314 308.146 11.8509 241.764 11.8509 160C11.8509 78.2364 78.2314 11.8538 160 11.8538Z" fill="white"/>
</svg>
